<svg xmlns="http://www.w3.org/2000/svg" viewBox="0 0 557.98 250.52"><defs><style>.cls-1{fill:#b1aeac;}.cls-2{fill:#a27f5d;}.cls-3{fill:maroon;}.cls-4{fill:#cf2e2e;}.cls-5{fill:#fff;}.cls-6{fill:#2a1000;}</style></defs><title>Asset 1</title><g id="Layer_2" data-name="Layer 2"><g id="Layer_2-2" data-name="Layer 2"><path class="cls-1" d="M509.43,206.38c30.12,13.43-18,45.76-220.29,44.08C23.89,248.25,3.67,225.11,5.91,211.89s204.56-22,254-22S484.7,195.35,509.43,206.38Z"/><path class="cls-2" d="M528.11,58.26l-4.75-1.5a21.79,21.79,0,0,0-.5-5c-.5-1.25-.5-6-.5-6s-1.25-24.25-6-29a16.6,16.6,0,0,0-10-5h-6S484.11,2.51,475.61,1.51s-35.75,7-35.75,7-8.5-1.25-12.5,1-18,23.25-21.75,43.75c-3.24,17.73-1,17.5.25,21.75s7.25,19,7.25,19a63.74,63.74,0,0,0-20.5-.5c-12,1.5-85.26,17-138.75,16-65.25-1.25-165-16.75-173-18s-26.75,1-28.25,1.5S28.36,81.26,20.36,69s-8.23-21.47-7.75-27.75c1.75-23,7.5-36,7.5-36S3.86,23.51,2.61,45.51c-.85,15-1.25,31.5,9,44.5s22.25,17.5,22.25,17.5-8.75,14.5-8,30,2,23.25,7.5,30,17.75,15,17.75,15-1,14.25-.75,21,3.75,24.25,7.25,26.75,11.5,3.5,11.5,3.5,5.38,3.5,7.75,3.5c3,0,8.5-2,8.5-2s2.25,3,7.75,2a9.21,9.21,0,0,0,7-6s9-3.74,7.75-12.5c-1-7.25-8.32-11.38-13-12.25-10.75-2-15.5.75-15.5.75A32.14,32.14,0,0,1,77.61,199a65.18,65.18,0,0,1,.5-10s7.75,2,11.5,2.5a22.89,22.89,0,0,1,7.25,2.5l1,10.5a69.3,69.3,0,0,1,9,7c3.25,3.25,3.75,9,3.75,9s6.25,3.5,10.25,3.5,5.5-1,5.5-1,5.5,2.5,9,.5a16.18,16.18,0,0,0,5.25-4.75s7.5-2,7-7a50.44,50.44,0,0,0-1.75-9s42.5,4.75,97,5,130.5-5,130.5-5-1.25,3.5,0,10.75,4.5,17.5,6.5,19.75,11.5,2.5,11.5,2.5,5,4,8,4.25,8-1.75,8-1.75,4.75,2.5,8.5,2,7.75-6.5,7.75-6.5,10.25-4.75,8.75-11.5-13.25-13.5-19.5-13.25a73.51,73.51,0,0,0-11,1.25s-.25-4-.5-6.5a24.05,24.05,0,0,1,.5-6l12.25-2.25,2.25,12s8.5,2.5,11,5,7.5,7.25,7.5,7.25a15.3,15.3,0,0,0,5.5.5,8.53,8.53,0,0,0,3.5-1,11.58,11.58,0,0,0,8.75.25c5-1.75,5-3.75,5-3.75s7.5-4.25,6.75-11.5S453.61,193,450.36,193s-12.25,1.5-12.25,1.5l-.75-9.75s15.5-13,19-26,1.25-15.25,1.75-20.75,2.75-17.75,2.75-17.75,3.25-8.25,6-12,9.75-7,9.75-7,2.25,12,5,16.75,7.25,16,11.75,17.5,17-11.75,21-20.75a50.34,50.34,0,0,0,4.25-17s9.5,0,20.75-8.25,18-17.5,16.5-21a13.15,13.15,0,0,0-5-5.5Z"/><path class="cls-3" d="M468.61,106.51s5.5,4.25,5.5,7.25-2.5,5.5-2.5,5.5-8.5-1.75-9.5-2.25,1.5-4.75,2.5-6.75S468.61,106.51,468.61,106.51Z"/><path class="cls-4" d="M453.86,109.51s5.25,4.5,10,6.5a17.58,17.58,0,0,0,9,1.25,15.49,15.49,0,0,1-5.75,9.5c-3.72,2.79-7,2.25-9.5,1.75s-9.75-3.5-9.75-3.5Z"/><ellipse class="cls-5" cx="533.5" cy="61.25" rx="11.68" ry="6.37" transform="translate(31.06 250.79) rotate(-27.22)"/><path class="cls-5" d="M506.11,53s-5.43-11.14-5.5-14.71C500.36,24.76,502.86,21,502.86,21s7.75,5,7.75,19c0,11.75-2.25,10.75-2.25,10.75Z"/><path class="cls-5" d="M485.11,57.51s5.75-8.75,4-18.75-9-15.5-11-17a40.44,40.44,0,0,0-3.75-2.5s-10.25,3.25-10.25,14.5,3.75,16,3.75,16,7.5,1.75,9.5,3S485.11,57.51,485.11,57.51Z"/><path class="cls-6" d="M98.61,193.51a147.72,147.72,0,0,0,2.5,15.06c.26,1.16-5.75-1.56-6-3.06a85.55,85.55,0,0,1-1-13.5C94.11,191.25,98.17,190.31,98.61,193.51Z"/><path class="cls-6" d="M119.13,197.57c-6.23,2.18-10.68,5.22-8.53,6.39a63.56,63.56,0,0,1,10.57-3.7c3-.74,7.17.4,10.19.5,4.11.13,6.52-.12,9,1.8,2.84,2.23,4.42,5.12,4.42,7.44,0,4.3-6,7.74-6,7.74l-2,4.59s13.77-.93,12.91-12.33a14.29,14.29,0,0,0-3.33-8.17c-4-4.77-10.68-3.81-18.93-3.81C124.15,198,122,196.55,119.13,197.57Z"/><path class="cls-6" d="M120.36,206.83s9.47.86,8.89,11.19c-.42,7.45-5.74,8.89-10.9,8-4.25-.71-8.32-4.3-8.32-4.3s-1.43-3.44,1.44-2.87,4.53,3,9.18,3.44c3.16.29,5.74-2.58,5.74-6.88S119.21,208.55,120.36,206.83Z"/><path class="cls-6" d="M132.69,206c1.15-1.15,10,1.22,9.18,11.55s-10.89,9.56-13.12,9a13,13,0,0,1-5.16-2.15l2.8-4.09s4.3,1.43,6.6,1.15a6.21,6.21,0,0,0,4.88-6.6C137,208.27,132,206.7,132.69,206Z"/><path class="cls-6" d="M416.46,193.28c.73,7.32,2,12.89,3.38,16.33.82,2-5,.4-5.17-.65-.73-4-2.19-8.94-2.68-14.44C411.74,191.67,416.3,191.65,416.46,193.28Z"/><path class="cls-6" d="M435.16,184.75a52.77,52.77,0,0,0,1,10l5.59-.86s-2.2-3.57-2.36-10.11C439.3,180.94,435.15,181.45,435.16,184.75Z"/><path class="cls-6" d="M428.11,199.9S439,194.74,447.9,195s14.34,6.6,14.34,10.9-6,7.74-6,7.74l-2,4.59s13.77-.93,12.91-12.33c-.75-9.91-11-15.78-21.08-14.63S425,198.18,428.11,199.9Z"/><path class="cls-6" d="M437.86,202.77s9.47.86,8.89,11.19c-.41,7.45-5.74,8.89-10.9,8-4.25-.71-8.32-4.3-8.32-4.3s-1.43-3.44,1.43-2.87,4.53,3,9.18,3.44c3.15.29,5.74-2.58,5.74-6.88S436.71,204.49,437.86,202.77Z"/><path class="cls-6" d="M450.19,201.91c1.15-1.15,10,1.22,9.18,11.55s-10.89,9.56-13.12,9a13,13,0,0,1-5.16-2.15l2.8-4.09s4.3,1.43,6.6,1.15a6.21,6.21,0,0,0,4.88-6.6C454.5,204.2,449.46,202.64,450.19,201.91Z"/><path class="cls-6" d="M481.78,17.26s-15,1-16,15.33,6.33,18,6.33,18l-5.33-2s-6.33-9.33-3.67-18.67S475.78,13.26,481.78,17.26Z"/><path class="cls-6" d="M472.45,19.59s14.67,6,15.67,19.67-4,17-4,17l2.33,1.67s6.67-8,3.33-21.67a27.38,27.38,0,0,0-15-18.33Z"/><path class="cls-6" d="M491.78,61.26s-4.67-5.67-16.67-11c-6.85-3-11.33-2.33-11.33-2.33l-2.33,4s4-.33,13.67,2.33C480.14,55.64,488.78,60.92,491.78,61.26Z"/><path class="cls-6" d="M457.78,27.26c.68,1.52,4-8.67,10.33-13.33s14.33-2.33,14.33-2.33-3.33-8-8.33-7-9,3.33-11.67,8.33S456.45,24.26,457.78,27.26Z"/><path class="cls-6" d="M501.78,20.92s-2.86,9.17-1.67,17.33c1.5,10.25,4.67,13.67,4.67,13.67l4,1.67s-4.92-4.08-6.67-16.33C500.92,28.9,503.78,21.92,501.78,20.92Z"/><path class="cls-6" d="M498.45,18.59a25.63,25.63,0,0,1,11.33,20c.67,13.67-4,12-4,12l2.67,2.33s4-1.07,3.42-14.67C511.36,26.26,500.11,15.26,498.45,18.59Z"/><path class="cls-6" d="M511.11,24.51a42.08,42.08,0,0,0-7-10.25c-2.75-2.75-5-.75-5.75-1.5s-2.25-9-1.5-9c3.26,0,7,2.75,10,6.5S511.61,20.51,511.11,24.51Z"/><path class="cls-6" d="M494.36,34.26c-1,0,3.25,17.75,14.25,21.25s18.5,3.5,18.5,3.5l5.25-2.5s-19.73-.78-24.75-4.25C497.86,45.51,496.38,34.26,494.36,34.26Z"/><path class="cls-6" d="M524.61,56.76s.5-5.25-2-7-8.25-3.5-9-5.5,1-16.75-1.5-22.75S487.86.26,474.11,0s-36.25,7.75-36.25,7.75l4.25,1.75s25.22-7,33.25-6.25c10.75,1,32.25,14,34.25,20.5s.5,23,2.5,24.25,7.5,3.5,8.5,4.25,1,4.75,1,4.75Z"/><path class="cls-6" d="M552.86,60s7.25,7,4.5,12.75-16.54,29-46.5,27.25c-29.75-1.75-33.45-20.14-35-24a26.44,26.44,0,0,1-1.75-7l4,.5s.25,8.25,5,14.75c5.23,7.16,10.75,12.25,28.5,12.25,28.75,0,43.25-24.5,42.5-27.25s-4-3.75-4-3.75Z"/><path class="cls-6" d="M490.36,73.51c.4-1.21-14.25-9.5-21-8.75s-11.5,3.25-11,4.5,12,.25,15.75.75S489.61,75.76,490.36,73.51Z"/><path class="cls-6" d="M512.11,98s-13.25,5.5-22,3.5-18.75-8.75-23-10.75-12.75-5.5-12.75-5.5l.5,5.5A49.29,49.29,0,0,1,469.36,96c7,4,13.75,9.19,24,9.5,16.5.5,26-7,26-7Z"/><path class="cls-6" d="M450.86,23.76c-1.41-1.41-8.5,7.25-7.5,15.5S455.11,79.51,453.86,97s-10.25,34.5-15.75,36.25-3-.5-5.5-5.25-24.5-47.25-26-60.75,14.5-56,23.75-57S453.86,17,453.86,15s-15.5-13-25.5-7.75-26.7,34.49-26,60.25c.5,18.5,25.5,60,26.5,63.5s1.75,14,10,8,18.75-23.75,18.75-44.75-11-50.25-11.25-55.5S451.61,24.51,450.86,23.76Z"/><path class="cls-6" d="M492.61,8s14.5-.25,21,4,7.5,13.25,8.25,17.5,2.75,27.25,2.75,27.25h-2.25s-2-29-6-35.5-8.75-8.25-11-8.75-7-1.25-7-1.25Z"/><path class="cls-6" d="M477.36,98.76s-5.25.75-12.25,7c-3.3,2.95-5.25,8-5.25,8l4.25,2.5s2.55-6,6.25-9c6.75-5.5,11-5.75,11-5.75Z"/><path class="cls-6" d="M469.36,105.51s10,8.5,5,13-20.75-7.25-20.75-7.25l1-3.75s13.25,12,17.25,8.5-4.5-9.25-4.5-9.25Z"/><path class="cls-6" d="M475.86,115.51s-4,11.5-11,14-17.75-3-17.75-3l2-4.25s9.25,6,15.25,4.25,7.5-8.75,7.5-8.75Z"/><path class="cls-6" d="M469.36,38.17c0,4.37,2.91,7.91,6.5,7.91s6.5-3.54,6.5-7.91-2.91-7.91-6.5-7.91S469.36,33.8,469.36,38.17Zm6.46-5.56c1.19-.55,3,.75,3.95,2.91s.82,4.34-.37,4.89-3-.75-3.95-2.91S474.63,33.15,475.82,32.61Z"/><path class="cls-6" d="M500.61,38.29c0,3.75,1.85,6.79,4.13,6.79s4.13-3,4.13-6.79-1.85-6.79-4.12-6.79S500.61,34.54,500.61,38.29Zm4.1-4.77c.76-.47,1.88.65,2.5,2.5s.52,3.73-.23,4.19-1.88-.65-2.5-2.49S504,34,504.71,33.52Z"/><path class="cls-6" d="M520.11,72C522.83,77.51,533,78,542.83,73.2S558.42,60,555.71,54.45,542.82,48.4,533,53.25,517.39,66.49,520.11,72Zm11.55-14.6c4.47-2.18,8.85-2.39,9.79-.47s-1.92,5.25-6.38,7.43-8.85,2.39-9.79.47S527.2,59.58,531.66,57.4Z"/><path class="cls-6" d="M411.11,91.26a65.08,65.08,0,0,0-19.67-1c-32.67,4-62.65,14.67-150,14.67-57.33,0-133.36-14.16-151.33-16s-34.67-2.67-44,5.33c-10.2,8.74-4.67,7.67,5.33,3s23.36-3.78,37.33-1.67,106.93,17,151.33,16.67c104-.67,137-14,151-15s23,1,23,1Z"/><path class="cls-6" d="M517.11,98.26s-.67,11.67-8,21.33-13.33,14-14.33,14-9.67-11.67-12-17-4.67-16-4.67-16l-3.33.67s1.67,10.33,5.67,18,10,18.33,14.67,20,15.67-13.33,19.67-21.33,5.67-19.33,5.67-19.33Z"/><path class="cls-6" d="M381.45,167.59s-6.67,18-5.67,35,4.33,27.67,7.33,29.33,10.33,2,11.33,4-2.67,2-2.67,2-6.83.83-12.17-2.17-9-19-9-36S378.11,166.59,381.45,167.59Z"/><path class="cls-6" d="M416.11,163.59c-1.41-.94-12.33,6.67-16.67,22.67-3.1,11.43-.33,24-.33,24l6.5-1s-5.25-8.5-1.25-23.5C408.68,169.55,419.11,165.59,416.11,163.59Z"/><path class="cls-6" d="M389.78,216.26s12.67-6,23-5.67,16.67,7.67,16.67,12.67-7,9-7,9l-2.33,5.33s16-1.08,15-14.33c-.87-11.51-12.83-18.33-24.5-17S386.11,214.26,389.78,216.26Z"/><path class="cls-6" d="M401.11,219.59s11,1,10.33,13c-.48,8.66-6.67,10.33-12.67,9.33-4.94-.82-9.67-5-9.67-5s-1.67-4,1.67-3.33,5.26,3.51,10.67,4c3.67.33,6.67-3,6.67-8S399.78,221.59,401.11,219.59Z"/><path class="cls-6" d="M415.45,218.59c1.33-1.33,11.67,1.42,10.67,13.42s-12.65,11.11-15.25,10.5c-4.25-1-6-2.5-6-2.5l3.25-4.75s5,1.67,7.67,1.33a7.21,7.21,0,0,0,5.67-7.67C420.45,221.26,414.6,219.44,415.45,218.59Z"/><path class="cls-6" d="M456.61,128.26s-.17,4.67-.17,12.67.67,18-13,33.33c-15.86,17.79-43.33,20-43.33,20v8.67s31.67-6.67,47.33-24.67,13.67-30.53,13.67-37.33c0-6-.75-12.92-.75-12.92Z"/><path class="cls-6" d="M449.11,140.26s3.33,9.33,2,17.33a36.32,36.32,0,0,1-4.33,12.67l-5.67-16a54.19,54.19,0,0,1-1,17.25c-1.5,7.25-10.5,12.5-14,13.5-5.29,1.51-6,1.25-1.67-1.42s10.67-6.83,11.92-14.33c1.77-10.59.75-21.33,3.08-21s7.67,12.67,7.67,12.67a29.31,29.31,0,0,0,1.33-7.33C448.86,145,448.11,140.26,449.11,140.26Z"/><path class="cls-6" d="M374.11,196.92s-12,6.67-132.67,6.67c-118.67,0-162.33-19.67-162.33-19.67l-1,7.67s56,18.83,157.33,19.33c134.67.67,137.33-6,137.33-6Z"/><path class="cls-6" d="M58.45,164.59s-6.67,18-5.67,35,4.33,27.67,7.33,29.33,10.33,2,11.33,4-2.67,2-2.67,2-6.83.83-12.17-2.17-9-19-9-36S55.11,163.59,58.45,164.59Z"/><path class="cls-6" d="M85.11,172.59c-1.41-.94-6,.33-8.67,10.67-3,11.46-.33,24-.33,24l6.5-1s-4.63-8.35-1.25-23.5C83.11,174.92,88.11,174.59,85.11,172.59Z"/><path class="cls-6" d="M66.78,213.26s12.67-6,23-5.67,16.67,7.67,16.67,12.67-7,9-7,9l-2.33,5.33s16-1.08,15-14.33c-.87-11.51-12.83-18.33-24.5-17S63.11,211.26,66.78,213.26Z"/><path class="cls-6" d="M78.11,216.59s11,1,10.33,13c-.48,8.66-6.67,10.33-12.67,9.33-4.94-.82-9.67-5-9.67-5s-1.67-4,1.67-3.33,5.26,3.51,10.67,4c3.67.33,6.67-3,6.67-8S76.78,218.59,78.11,216.59Z"/><path class="cls-6" d="M92.45,215.59c1.33-1.33,11.67,1.42,10.67,13.42s-12.65,11.11-15.25,10.5c-4.25-1-6-2.5-6-2.5l3.25-4.75s5,1.67,7.67,1.33a7.22,7.22,0,0,0,5.67-7.67C97.45,218.26,91.6,216.44,92.45,215.59Z"/><path class="cls-6" d="M104.44,140.92s13.33,19.67-3.33,33.67c-13.13,11-21.33,5.67-21.33,5.67l2-6.33s10,3.67,19.33-7.67C109.47,156.11,99.78,141.92,104.44,140.92Z"/><path class="cls-6" d="M63.11,93.59s-30,3-34.33,38c-4.75,38.32,23.33,46,23.33,46l-2,8.67s-30.2-10.68-26.33-55.33c3-34.67,33-43.67,35.67-42.33S63.11,93.59,63.11,93.59Z"/><path class="cls-6" d="M58.11,92.26s-24.67-6-37.5-26.5c-13.53-21.61-.5-60.5-.5-60.5s-18.17,34.5-3.67,62A52.47,52.47,0,0,0,50.11,93.92Z"/><path class="cls-6" d="M37.61,105.26s-26-3.5-32.5-39.5c-6.08-33.69,15-60.5,15-60.5S-3.5,26.8.44,66.26c3.5,35,34.17,45.5,34.17,45.5Z"/><ellipse class="cls-6" cx="504.28" cy="76.26" rx="1.83" ry="1.67"/><ellipse class="cls-6" cx="512.45" cy="85.09" rx="2.33" ry="1.5"/></g></g></svg>