<svg xmlns="http://www.w3.org/2000/svg" viewBox="0 0 2297.3 1435.49"><defs><style>.cls-1{fill:#ffd9a4;}.cls-2{fill:#ededed;}.cls-3{fill:#c6c6c6;}</style></defs><title>fugiat</title><g id="Layer_2" data-name="Layer 2"><g id="_ÎÓÈ_1" data-name="—ÎÓÈ_1"><path class="cls-1" d="M233.65,1090.59v50.79H55.15v99.17H219.62v51.28H55.15v137.38H0V1090.59Z"/><path class="cls-1" d="M699,1090.59v213.33c0,98.2-69.17,131.58-144.15,131.58-75.46,0-145.12-33.38-145.12-131.58V1090.59h55.15V1301c0,61.44,37.25,83.2,90,83.2,51.76,0,89-21.77,89-83.2V1090.59Z"/><path class="cls-1" d="M1059.88,1084.3c36.28,0,72.08,7.74,102.55,22.25v53.69c-25.64-16.45-60-25.15-94.81-25.15-66.27,0-133,36.28-133,124.8,0,96.75,70.14,125.29,131.58,125.29,18.87,0,37.25-3.39,50.79-9.68V1247.32h53.69v165.44c-32.41,14.51-70.62,22.73-107.87,22.73-93.85,0-184.79-49.34-184.79-175.6C878,1140.41,968.94,1084.3,1059.88,1084.3Z"/><path class="cls-1" d="M1415.43,1090.59v338.62h-55.15V1090.59Z"/><path class="cls-1" d="M1580.39,1429.21l143.19-338.62H1784l142.7,338.62h-58l-30-73H1668.91l-30,73Zm107.39-121.42h131.58l-59.5-144.64c-1.94-5.32-3.87-10.64-6.29-18.87-2.42,8.22-4.35,13.54-6.29,18.87Z"/><path class="cls-1" d="M2297.3,1090.59v50.79H2185.55v287.83h-55.15V1141.38H2018.18v-50.79Z"/><path class="cls-2" d="M1529.71,341.86l-98.48-270.6L1247.81,138,1109.8,0l-138,138L788.32,71.26l-98.48,270.6C635.56,491,712.75,656.6,861.91,710.88L1080.1,790.3l8.82,3.19,20.88,7.6,20.93-7.65,8.72-3.14,218.19-79.42a287.88,287.88,0,0,0,172.07-369Zm-270.09-84.49c82.61,82.61,82.61,217.07,0,299.69l-55.45,55.45L1231,538.81c37.76-103.85,11.86-215.55-57.62-292.24,4.36-1.93,8.82-3.75,13.33-5.37L1228.29,226ZM991.25,226l41.61,15.16c4.46,1.62,8.87,3.4,13.18,5.37a288.51,288.51,0,0,0-57.47,292.24l26.81,73.69-55.45-55.45a212,212,0,0,1,0-299.69Zm75.87,124.73A210.83,210.83,0,0,1,1109.75,290c56.66,56.46,78.91,142.82,49.77,222.8L1109.8,649.5,1060,512.81A210.49,210.49,0,0,1,1067.12,350.78ZM1109.8,107.5l59.2,59.2-8.31,3a289,289,0,0,0-50.94,24.38,286.42,286.42,0,0,0-50.83-24.38l-8.31-3ZM888,639.47c-109.83-40-166.64-161.83-126.66-271.61l72.48-199.13,78.66,28.64-6.23,6.23a287.91,287.91,0,0,0,0,407.18l55.55,55.55ZM1451.2,529.89a210.77,210.77,0,0,1-119.56,109.58l-73.79,26.86,55.55-55.55c112.26-112.26,112.26-294.92,0-407.18l-6.23-6.23,78.66-28.64,72.48,199.13A210.51,210.51,0,0,1,1451.2,529.89Z"/><path class="cls-3" d="M991.25,226l-31.32,31.32c-1.88,1.88-3.75,3.8-5.53,5.78L878.23,236a290.36,290.36,0,0,1,28-32.39l6.23-6.23Z"/><path class="cls-3" d="M1203.46,286.21c-26.25,10.29-50.43,26.51-65.84,38.11A209.59,209.59,0,0,0,1109.75,290a208.89,208.89,0,0,1,63.61-43.43A291.6,291.6,0,0,1,1203.46,286.21Z"/></g></g></svg>